<svg style="object-fit:cover" id="my-svg" version="1" baseProfile="full" width="100%" height="100%" viewBox="0 0 1366 667" xmlns="http://www.w3.org/2000/svg"><rect width="1366" height="667" fill="#fcf6e4"></rect><defs><linearGradient id="linear-gradient" x1="0" x2="1" y1="0" y2="1"><stop offset="0%" stop-color="#fdc6bc70"></stop><stop offset="100%" stop-color="#db9a8f70"></stop></linearGradient></defs><path transform="scale(1, 1)" style="transform-origin:center" d="M 0,667 V 0,266 C 87.04761904761907,312.32142857142856 174.09523809523813,358.64285714285717 279,347 C 383.90476190476187,335.35714285714283 506.66666666666663,265.75 634,260 C 761.3333333333334,254.25 893.2380952380954,312.35714285714283 1016,324 C 1138.7619047619046,335.64285714285717 1252.3809523809523,300.82142857142856 1366,266 C 1366,266 1366,667 1366,667 Z" stroke="none" stroke-width="0" fill="url(#linear-gradient)" class="transition-all duration-300 ease-in-out delay-150"></path><defs><linearGradient id="linear-gradient" x1="0" x2="1" y1="0" y2="1"><stop offset="0%" stop-color="#fdc6bc80"></stop><stop offset="100%" stop-color="#db9a8f80"></stop></linearGradient></defs><path transform="scale(1, 1)" style="transform-origin:center" d="M 0,667 V 0,400 C 98.72619047619045,442.07142857142856 197.4523809523809,484.14285714285717 305,490 C 412.5476190476191,495.85714285714283 528.9166666666667,465.5 651,429 C 773.0833333333333,392.5 900.8809523809525,349.85714285714283 1021,344 C 1141.1190476190475,338.14285714285717 1253.5595238095239,369.07142857142856 1366,400 C 1366,400 1366,667 1366,667 Z" stroke="none" stroke-width="0" fill="url(#linear-gradient)" class="transition-all duration-300 ease-in-out delay-150"></path><defs><linearGradient id="linear-gradient" x1="0" x2="1" y1="0" y2="1"><stop offset="0%" stop-color="#fdc6bc90"></stop><stop offset="100%" stop-color="#db9a8f90"></stop></linearGradient></defs><path transform="scale(1, 1)" d="M 0,667 V 0,600 C 122.58333333333331,586.8214285714286 245.16666666666663,573.6428571428571 355,580 C 464.83333333333337,586.3571428571429 561.9166666666667,612.25 658,600 C 754.0833333333333,587.75 849.1666666666667,537.3571428571429 967,531 C 1084.8333333333333,524.6428571428571 1225.4166666666665,562.3214285714286 1366,600 C 1366,600 1366,667 1366,667 Z" stroke="none" stroke-width="0" fill="url(#linear-gradient)" class="transition-all duration-300 ease-in-out delay-150" style="transform-origin: center center;"></path><defs><linearGradient id="linear-gradient" x1="0" x2="1" y1="0" y2="1"><stop offset="0%" stop-color="#fdc6bcff"></stop><stop offset="100%" stop-color="#db9a8fff"></stop></linearGradient></defs><path transform="scale(1, 1)" d="M 0,667 V 0,900 C 98.76190476190476,921.6785714285714 197.52380952380952,943.3571428571429 328,916 C 458.4761904761905,888.6428571428571 620.6666666666667,812.2499999999999 724,827 C 827.3333333333333,841.7500000000001 871.8095238095239,947.6428571428572 969,975 C 1066.1904761904761,1002.3571428571428 1216.095238095238,951.1785714285713 1366,900 C 1366,900 1366,667 1366,667 Z" stroke="none" stroke-width="0" fill="url(#linear-gradient)" class="transition-all duration-300 ease-in-out delay-150" style="transform-origin: center center;"></path></svg>