<svg xmlns="http://www.w3.org/2000/svg" width="3360" height="469" viewBox="0 0 3360 469">
  <defs>
    <style>
      .cls-1 {
        fill: #eccc6e;
        fill-rule: evenodd;
      }
    </style>
  </defs>
  <path id="Color_Fill_1" data-name="Color Fill 1" class="cls-1" d="M464,469H2897c6.49-9.805,18.02-15.762,25-25,9.36-12.388,21.14-22.135,32-33q28.995-29,58-58c75.5-75.5,149.5-152.5,225-228,29.17-29.166,57.83-58.833,87-88,7.63-7.628,32.82-28.207,36-37H0V1H1C6.1,8.7,14.532,14.532,21,21L67,68,88,88c10.186,13.479,23.167,24.167,35,36l67,67c60.167,60.166,118.833,121.834,179,182,23.128,23.128,50.2,44.792,70,71C445.981,453.24,457.494,459.2,464,469Z"/>
</svg>
